<svg xmlns="http://www.w3.org/2000/svg" fill="currentColor" viewBox="0 0 110 12">
    <g clip-path="url(#clip0_8206_616)">
        <path fill="currentColor" d="M13.2312 2.38863H0.5V0.499985H13.2312V2.38863ZM13.2129 7.11231H0.5V5.21953H13.2129V7.11231ZM13.2129 9.94498V11.833H0.5V9.9438L13.2129 9.94498Z"></path>
        <path fill="currentColor" d="M26.9411 2.40462L22.4031 2.4135C19.3656 2.40876 17.9381 3.66037 17.9381 6.16713C17.9381 8.67388 19.3644 9.93081 22.3954 9.93081H28.7584V11.8129L22.4019 11.823C18.1651 11.8297 16.0466 9.95073 16.0466 6.18606C16.0466 2.42138 18.1503 0.533919 22.3577 0.523666H28.7584V2.40876L26.9411 2.40462Z"></path>
        <path fill="currentColor" d="M37.9016 0.523666C42.1682 0.523666 44.302 2.40482 44.3028 6.16713C44.3036 9.92943 42.1836 11.8147 37.9428 11.823C33.7051 11.8297 31.5865 9.95073 31.5869 6.18606C31.5873 2.42138 33.6922 0.533919 37.9016 0.523666ZM42.3936 6.16594C42.3936 3.65918 40.972 2.40758 37.9457 2.41231C34.9088 2.40758 33.5049 3.65918 33.5049 6.16594C33.5049 8.6727 34.9071 9.92963 37.9381 9.92963C40.9691 9.92963 42.3936 8.67684 42.3936 6.16594Z"></path>
        <path fill="currentColor" d="M104.679 0.51544V9.92495H101.042V0.520172V0.51544H99.2212V9.92613H95.5843V0.505384V0.500061H93.7664V11.8319H104.686C106.048 11.8319 106.498 11.1079 106.498 9.95689V0.51544H104.679Z"></path>
        <path fill="currentColor" d="M75.4066 9.93087H65.8537C65.4945 9.93087 65.15 9.78754 64.896 9.53241C64.642 9.27727 64.4993 8.93124 64.4993 8.57043V0.503616H62.6802V9.07438C62.681 9.80406 62.9703 10.5036 63.4844 11.019C63.9986 11.5345 64.6956 11.8237 65.422 11.8231H75.4066V9.93087Z"></path>
        <path fill="currentColor" d="M84.5256 0.523666C88.7923 0.523666 90.926 2.40482 90.9268 6.16713C90.9276 9.92943 88.8076 11.8147 84.5668 11.823C80.3292 11.8297 78.2105 9.95073 78.2109 6.18606C78.2113 2.42138 80.3162 0.533919 84.5256 0.523666ZM89.0176 6.16594C89.0176 3.65918 87.596 2.40758 84.5697 2.41231C81.5329 2.40758 80.1289 3.65918 80.1289 6.16594C80.1289 8.6727 81.5311 9.92963 84.5621 9.92963C87.5931 9.92963 89.0176 8.67684 89.0176 6.16594Z"></path>
        <path fill="currentColor" d="M59.8646 0.523666H47.134V2.40876H59.8646V0.523666Z"></path>
        <path fill="currentColor" d="M59.8487 7.12067H48.9513V9.46772V11.813H47.134V7.12067V5.23439H59.8487V7.12067Z"></path>
    </g>
    <defs>
        <clipPath id="clip0_8206_616">
            <rect transform="translate(0.5 0.5)" fill="white" height="11.3319" width="106"></rect>
        </clipPath>
    </defs>
</svg>
